<svg width="228" height="46" viewBox="0 0 228 46" fill="none" xmlns="http://www.w3.org/2000/svg">
<g clip-path="url(#clip0_20_4709)">
<path d="M137.39 27.6391C138.996 26.7893 139.897 25.3366 140.536 23.703C138.824 23.3118 137.117 23.2428 135.512 24.0926C133.909 24.9424 133.009 26.3935 132.371 28.0287C134.081 28.4168 135.785 28.4889 137.39 27.6391Z" fill="url(#paint0_radial_20_4709)"/>
<path d="M135.129 22.304C133.721 24.5436 131.852 25.4225 130.199 25.9165C129.924 24.2107 129.907 22.1475 131.317 19.9079C132.724 17.6683 134.592 16.7893 136.246 16.2969C136.519 17.9996 136.534 20.0659 135.129 22.3055V22.304Z" fill="url(#paint1_radial_20_4709)"/>
<path d="M129.665 18.4782C129.716 15.2815 128.186 12.8716 127.186 11.5278C126.086 12.9176 124.537 15.2155 124.483 18.3954C124.436 21.3422 125.712 23.6769 126.961 25.3474C128.26 23.6937 129.616 21.4342 129.665 18.4798V18.4782Z" fill="url(#paint2_radial_20_4709)"/>
<path d="M121.862 16.6666C119.932 13.0894 116.818 11.1535 114.781 10C114.675 12.3991 114.494 15.9273 116.464 19.5781C118.258 22.9022 120.98 24.7414 123.544 26.2432C123.742 23.2888 123.618 19.9232 121.862 16.6666Z" fill="url(#paint3_radial_20_4709)"/>
<path d="M112.211 19.2176C107.757 16.6973 102.669 16.1205 99.3306 16.1604C100.937 18.9292 104.031 23.048 108.587 25.625C112.971 28.1055 117.93 28.7221 121.466 28.6822C119.597 25.556 116.6 21.7027 112.211 19.2176Z" fill="url(#paint4_radial_20_4709)"/>
<path d="M103.767 27.7986C98.2247 27.7986 92.0305 29.4446 87.0834 31.7348C92.1072 34.0143 98.0697 35.6725 103.767 35.6725C108.306 35.6725 113.732 34.7889 120.449 31.7348C113.101 28.4322 108.007 27.7986 103.767 27.7986Z" fill="url(#paint5_radial_20_4709)"/>
<path d="M62.3681 17.3216C58.9596 17.3216 57.3597 19.8496 57.3597 22.9774C57.3597 26.3214 59.4352 28.5902 62.7731 28.5902C65.0326 28.5902 66.3994 27.7081 66.585 27.613L65.6984 25.6051C65.5542 25.7032 64.5939 26.346 63.1014 26.346C61.3802 26.346 60.2574 25.3289 60.1469 23.907H67.1158C67.1495 23.706 67.2707 23.0617 67.2707 22.4834C67.2692 19.483 65.4821 17.3216 62.3697 17.3216H62.3681ZM60.1454 21.8744C60.1592 20.6595 60.825 19.4584 62.3681 19.4584C63.8131 19.4584 64.5709 20.5138 64.5939 21.8744H60.1454ZM164.465 21.5953C163.816 20.9019 162.478 19.8419 160.808 20.2807C157.368 21.1857 155.294 28.9813 161.259 28.9813C161.582 28.9813 163.797 28.966 164.164 28.966C163.81 30.3956 161.213 31.474 157.005 31.474C151.866 31.474 149.399 27.8508 152.533 22.6353L150.473 21.5953C147.859 26.0131 147.302 34.0756 157.005 34.0756C163.9 34.0756 166.764 31.4295 166.764 27.432C166.764 24.3273 165.69 22.9053 164.465 21.5937V21.5953ZM161.872 26.4288C158.908 26.4288 158.964 23.3501 161.032 22.9513C161.843 22.7948 163.426 23.6477 164.164 26.4288H161.872ZM15.4409 21.0553V28.3478H12.8485V21.5738C12.8485 20.365 12.2242 19.5873 10.9495 19.5873C9.99995 19.5873 9.08417 20.072 8.95531 20.1426C8.97679 20.253 9.11485 20.8267 9.11485 21.7901V28.3493H6.5209V21.5554C6.5209 20.3466 5.8567 19.5873 4.62799 19.5873C3.67539 19.5873 2.8087 19.9999 2.70132 20.0521C2.71513 20.115 2.79029 20.4724 2.79029 21.0998V28.3478H0.202484V19.8082C0.202484 19.19 0.0383492 18.5365 0 18.4246C0.269979 18.3218 2.77955 17.3216 4.88416 17.3216C7.10688 17.3216 7.91375 18.2681 8.0334 18.3816C8.21134 18.2742 9.69929 17.3216 11.3989 17.3216C13.8257 17.3216 15.4425 18.7007 15.4425 21.0553H15.4409ZM185.673 17.1958L183.929 15.4379L185.649 13.6278L187.334 15.3075L189.037 13.5971L190.84 15.3489L189.085 17.1958L187.333 15.4824L185.672 17.1958H185.673ZM228 28.9829H225.406V13.2719L228 12.6676V28.9844V28.9829ZM187.339 14.3135L185.593 12.5663L187.318 10.7424L189.085 12.5172L187.339 14.315V14.3135ZM159.631 17.1958L157.887 15.4486L159.606 13.6217L161.295 15.3137L162.995 13.6064L164.794 15.3581L163.047 17.1989L161.295 15.4855L159.631 17.1974V17.1958ZM36.533 25.2062C36.533 27.5762 34.4867 28.5871 32.2394 28.5871C30.4017 28.5871 28.8647 27.9474 28.6745 27.8753L29.4323 25.8474C29.4844 25.8766 30.6257 26.4932 31.7869 26.4932C33.0371 26.4932 33.6614 25.9747 33.6614 25.2661C33.6614 24.7537 33.3255 24.3119 32.4465 23.9606C32.1535 23.8441 31.6857 23.6615 31.3635 23.5403C30.2468 23.1231 28.9567 22.3546 28.9567 20.5476C28.9567 18.4092 30.931 17.3262 32.8914 17.3186C34.6554 17.3078 35.7783 17.8447 36.056 17.969L35.3258 19.9723C35.246 19.9386 34.16 19.4784 32.9589 19.4784C32.2348 19.4784 31.609 19.7591 31.609 20.4064C31.609 21.0032 32.0415 21.3192 32.8285 21.6275C33.1383 21.7502 33.5801 21.9159 33.9253 22.0539C35.3181 22.6046 36.533 23.4774 36.533 25.2032V25.2062ZM222.604 26.2984V12.6676L220.01 13.2719V23.6845C220.01 25.2599 220.221 25.8766 220.255 26.0315C220.168 26.0668 219.425 26.4349 217.995 26.4349H212.835C212.916 26.3 213.122 25.128 212.272 23.6155C210.889 21.1688 210.094 19.1578 208.115 19.1578C205.676 19.1578 204.662 21.537 202.955 24.3702C202.487 25.1433 202.016 26.4319 200.033 26.4319H195.807C195.747 26.3276 195.54 26.0284 195.54 25.5238C195.54 22.2165 194.23 20.2761 192.866 19.236L191.099 20.9939C192.45 21.9757 193.044 23.0878 193.044 25.1556C193.044 26.0683 193.222 26.2739 193.311 26.4319H190.297C190.198 26.2309 190.073 25.9165 190.073 25.2722C190.073 22.6476 188.626 21.4419 187.716 20.7086L185.997 22.4635C186.31 22.6951 187.663 23.4376 187.663 25.1771C187.663 26.0131 187.819 26.3138 187.871 26.4319H185.038C184.964 26.2785 184.823 25.9134 184.823 25.2722C184.823 22.6476 183.368 21.4419 182.467 20.7086L180.741 22.4635C181.076 22.735 182.412 23.5557 182.412 25.2906C182.412 25.8597 182.542 26.3276 182.621 26.4334H175.937C175.768 24.2122 174.655 22.4343 173.377 21.5293L171.564 23.3563C172.703 24.5758 173.32 25.9502 173.32 27.8922C173.32 30.8436 171.476 32.6767 168.223 33.2212L168.45 34.9285C173.566 34.6079 175.759 31.7532 175.914 28.9829H200.697C202.564 28.9829 203.423 27.9873 203.644 27.6008C203.883 27.8677 204.866 28.9829 207.492 28.9829H217.87C220.754 28.9829 222.729 28.1668 222.881 28.1039C222.852 27.9904 222.604 27.3062 222.604 26.2969V26.2984ZM209.433 26.4334H208.371C206.267 26.4334 205.501 25.5713 205.063 25.1387C206.27 23.0019 206.696 21.9757 207.753 21.9757C208.657 21.9757 208.991 22.9145 210.069 24.8688C210.57 25.7646 210.092 26.4334 209.433 26.4334ZM74.6138 17.3216C71.078 17.3216 68.8077 19.6333 68.8077 22.9329C68.8077 26.2325 71.2222 28.5886 74.1367 28.5886C74.7856 28.5886 75.456 28.4567 76.1202 28.222V33.2074L78.7141 32.8853V20.0183C78.7141 19.2805 78.7908 18.3294 78.8445 18.0963C78.5883 17.9981 76.5635 17.3216 74.6153 17.3216H74.6138ZM76.1217 21.1934V26.0407C75.6891 26.234 75.1737 26.3444 74.7012 26.3444C72.7776 26.3444 71.7008 24.7522 71.7008 22.9528C71.7008 21.1535 72.5184 19.5689 74.5478 19.5689C75.5158 19.5689 76.1232 19.8113 76.226 19.8496C76.2076 19.9416 76.1232 20.52 76.1232 21.1934H76.1217ZM47.9918 21.1412V28.3478H45.3978V21.6183C45.3978 20.3343 44.6646 19.5689 43.4037 19.5689C42.4449 19.5689 41.4724 20.115 41.1027 20.3635V28.3463H38.5118V12.6338L41.1027 12.0264V18.1653C41.2362 18.0901 42.4603 17.3201 44.1323 17.3201C46.6265 17.3216 47.9918 18.7927 47.9918 21.1427V21.1412ZM26.6251 21.2639C26.6251 18.7022 25.0467 17.3201 22.3775 17.3201C20.3987 17.3201 18.5319 18.1607 18.334 18.2497L19.216 20.2132C19.3541 20.1549 20.7362 19.5183 22.2241 19.5183C23.324 19.5183 24.0358 19.934 24.0358 20.52C24.0358 21.1473 23.4176 21.3958 22.4819 21.6183C20.503 22.0769 17.3415 22.304 17.3415 25.24C17.3415 27.7649 19.8419 28.5902 22.1781 28.5902C24.5144 28.5902 26.6619 27.8002 26.8184 27.7511C26.7708 27.5609 26.6266 27.1038 26.6266 25.9962V21.2655H26.6251V21.2639ZM22.1428 26.4641C21.1442 26.4641 20.1932 26.1021 20.1932 25.1111C20.1932 24.3043 21.0583 23.9867 21.9971 23.7689C22.7871 23.5818 23.6661 23.3517 24.0342 23.0617V24.904C24.0342 25.6281 24.1017 26.0361 24.1201 26.1312C24.0235 26.1634 23.1921 26.4656 22.1428 26.4656V26.4641ZM55.1861 17.3201C55.8503 17.3201 56.5912 17.4091 57.1695 17.5563L56.3887 19.779C56.0451 19.6793 55.4392 19.5689 54.9606 19.5689C53.9129 19.5689 53.0232 19.8281 52.9219 19.8619C52.9373 19.9324 53.0431 20.4202 53.0431 21.3376V28.3478H50.4584V20.6289C50.4584 19.3956 50.2728 18.5825 50.259 18.5074C50.5489 18.3969 52.8683 17.3201 55.1861 17.3201Z" fill="url(#paint6_radial_20_4709)"/>
</g>
<defs>
<radialGradient id="paint0_radial_20_4709" cx="0" cy="0" r="1" gradientUnits="userSpaceOnUse" gradientTransform="translate(132.967 28.1179) scale(9.71877 9.71877)">
<stop stop-color="#FFDC04"/>
<stop offset="0.21" stop-color="#F8B00D"/>
<stop offset="0.46" stop-color="#F08218"/>
<stop offset="0.69" stop-color="#EB6020"/>
<stop offset="0.88" stop-color="#E84B25"/>
<stop offset="1" stop-color="#E74427"/>
</radialGradient>
<radialGradient id="paint1_radial_20_4709" cx="0" cy="0" r="1" gradientUnits="userSpaceOnUse" gradientTransform="translate(130.784 25.9952) scale(11.416 11.416)">
<stop stop-color="#FFDC04"/>
<stop offset="0.21" stop-color="#F8B00D"/>
<stop offset="0.46" stop-color="#F08218"/>
<stop offset="0.69" stop-color="#EB6020"/>
<stop offset="0.88" stop-color="#E84B25"/>
<stop offset="1" stop-color="#E74427"/>
</radialGradient>
<radialGradient id="paint2_radial_20_4709" cx="0" cy="0" r="1" gradientUnits="userSpaceOnUse" gradientTransform="translate(127.534 25.424) scale(14.2827 14.2828)">
<stop stop-color="#FFDC04"/>
<stop offset="0.21" stop-color="#F8B00D"/>
<stop offset="0.46" stop-color="#F08218"/>
<stop offset="0.69" stop-color="#EB6020"/>
<stop offset="0.88" stop-color="#E84B25"/>
<stop offset="1" stop-color="#E74427"/>
</radialGradient>
<radialGradient id="paint3_radial_20_4709" cx="0" cy="0" r="1" gradientUnits="userSpaceOnUse" gradientTransform="translate(124.1 26.3259) scale(18.4784)">
<stop stop-color="#FFDC04"/>
<stop offset="0.21" stop-color="#F8B00D"/>
<stop offset="0.46" stop-color="#F08218"/>
<stop offset="0.69" stop-color="#EB6020"/>
<stop offset="0.88" stop-color="#E84B25"/>
<stop offset="1" stop-color="#E74427"/>
</radialGradient>
<radialGradient id="paint4_radial_20_4709" cx="0" cy="0" r="1" gradientUnits="userSpaceOnUse" gradientTransform="translate(122.499 28.9319) scale(26.6729 26.6729)">
<stop stop-color="#FFDC04"/>
<stop offset="0.2" stop-color="#F8B00D"/>
<stop offset="0.44" stop-color="#F08218"/>
<stop offset="0.65" stop-color="#EB6020"/>
<stop offset="0.83" stop-color="#E84B25"/>
<stop offset="0.94" stop-color="#E74427"/>
</radialGradient>
<radialGradient id="paint5_radial_20_4709" cx="0" cy="0" r="1" gradientUnits="userSpaceOnUse" gradientTransform="translate(121.611 31.8054) scale(34.3787 34.3787)">
<stop stop-color="#FFDC04"/>
<stop offset="0.18" stop-color="#F8B00D"/>
<stop offset="0.4" stop-color="#F08218"/>
<stop offset="0.6" stop-color="#EB6020"/>
<stop offset="0.76" stop-color="#E84B25"/>
<stop offset="0.87" stop-color="#E74427"/>
</radialGradient>
<radialGradient id="paint6_radial_20_4709" cx="0" cy="0" r="1" gradientUnits="userSpaceOnUse" gradientTransform="translate(157.18 -26.3082) rotate(-119.9) scale(126.324 165.484)">
<stop stop-color="#FFDC04"/>
<stop offset="0.18" stop-color="#F8B00D"/>
<stop offset="0.4" stop-color="#F08218"/>
<stop offset="0.6" stop-color="#EB6020"/>
<stop offset="0.76" stop-color="#E84B25"/>
<stop offset="0.87" stop-color="#E74427"/>
</radialGradient>
<clipPath id="clip0_20_4709">
<rect width="228" height="25.6725" fill="white" transform="translate(0 10)"/>
</clipPath>
</defs>
</svg>
